<?xml version="1.0" standalone="no"?>
<!DOCTYPE svg PUBLIC "-//W3C//DTD SVG 20010904//EN"
 "http://www.w3.org/TR/2001/REC-SVG-20010904/DTD/svg10.dtd">
<svg version="1.0" xmlns="http://www.w3.org/2000/svg"
 width="512.000000pt" height="512.000000pt" viewBox="0 0 512.000000 512.000000"
 preserveAspectRatio="xMidYMid meet">

<g transform="translate(0.000000,512.000000) scale(0.100000,-0.100000)"
fill="#000000" stroke="none">
<path d="M1525 4210 c-37 -41 -9 -110 46 -110 28 0 69 39 69 65 0 7 -9 24 -21
39 -25 32 -68 35 -94 6z"/>
<path d="M2354 4152 c-19 -13 -34 -50 -34 -86 0 -34 -2 -36 -35 -36 -71 0
-106 -36 -91 -95 7 -29 40 -45 92 -45 32 0 34 -2 34 -34 0 -74 34 -107 94 -92
26 6 46 49 46 97 0 27 3 29 36 29 61 0 94 25 94 72 0 36 -42 68 -90 68 -37 0
-37 1 -43 45 -2 25 -13 55 -22 65 -18 20 -60 26 -81 12z"/>
<path d="M759 3536 c-57 -20 -96 -53 -118 -99 -66 -137 28 -290 177 -290 87 0
153 44 186 125 45 107 -20 235 -135 268 -44 13 -66 12 -110 -4z"/>
<path d="M3374 3536 c-18 -13 -19 -32 -24 -273 l-5 -258 -116 -3 c-105 -2
-118 -5 -136 -25 -50 -54 -703 -980 -703 -997 0 -10 9 -28 19 -41 l19 -24 461
-3 461 -3 0 -253 c0 -232 1 -254 18 -269 50 -45 41 -53 604 510 465 465 528
531 528 558 0 27 -64 94 -533 563 -355 354 -539 532 -553 532 -11 0 -29 -6
-40 -14z m546 -651 l425 -425 -433 -433 -432 -432 0 201 c0 184 -2 204 -19
225 l-19 24 -425 5 -424 5 291 408 291 407 132 0 c184 0 173 -15 173 240 0
110 3 200 8 200 4 0 198 -191 432 -425z"/>
<path d="M1458 2983 c-9 -10 -169 -233 -357 -496 -353 -495 -363 -513 -325
-551 16 -17 61 -21 80 -8 15 10 692 956 706 987 25 55 -64 113 -104 68z"/>
<path d="M1738 2988 c-9 -7 -170 -229 -359 -493 -227 -318 -344 -490 -347
-510 -5 -40 24 -68 69 -63 30 3 54 33 386 497 227 318 353 502 353 517 0 49
-64 81 -102 52z"/>
<path d="M2014 2992 c-18 -12 -696 -964 -707 -993 -16 -41 13 -79 58 -79 41 0
17 -31 458 587 300 420 311 439 269 476 -19 18 -59 22 -78 9z"/>
<path d="M2274 2978 c-12 -13 -173 -236 -359 -497 -346 -485 -358 -506 -325
-545 13 -16 66 -21 86 -8 15 10 692 957 706 988 10 20 8 29 -9 52 -27 36 -72
41 -99 10z"/>
<path d="M2557 2988 c-9 -7 -172 -231 -362 -497 -254 -357 -345 -491 -345
-512 0 -37 24 -59 65 -59 33 0 41 10 389 496 228 318 356 505 356 520 0 50
-63 81 -103 52z"/>
<path d="M2828 2988 c-8 -7 -171 -232 -362 -499 -232 -326 -346 -494 -346
-511 0 -57 77 -81 116 -35 12 14 173 237 358 495 352 492 360 507 318 545 -22
20 -62 22 -84 5z"/>
<path d="M2277 1272 c-37 -41 -11 -105 42 -105 41 0 64 23 64 64 0 54 -70 81
-106 41z"/>
<path d="M2720 1279 c-14 -6 -38 -22 -53 -37 -97 -91 -86 -242 21 -317 37 -25
53 -30 105 -30 112 0 191 66 203 171 15 125 -74 225 -198 223 -29 0 -64 -5
-78 -10z"/>
</g>
</svg>
