<svg xmlns="http://www.w3.org/2000/svg" xmlns:xlink="http://www.w3.org/1999/xlink" version="1.1" width="56.36987081632549" height="46.863022324470194" style="enable-background:new 0 0 460.298 460.297;" xml:space="preserve"><rect id="backgroundrect" width="100%" height="100%" x="0" y="0" fill="none" stroke="none" class="selected" style=""/>






<g class="currentLayer" style=""><title>Layer 1</title><g id="svg_1" class="">
	<g id="svg_2">
		<path d="M28.909073628391322,12.251502504382415 L10.242384923662245,27.64020955685163 c0,0.021718277215957652 
		-0.0054579963684082055,0.053670297622680684 -0.016373989105224623,0.09722056031227115 c-0.010688576221466071,
		0.043209137916564964 -0.016373989105224623,0.07459261703491214 -0.016373989105224623,0.09687943553924562 v15.582693340063095 
		c0,0.5626284589767456 0.20569823813438423,1.0502094678878784 0.6169810061454777,1.4608099863529205 c0.411169059753418,
		0.4108279349803925 0.8980678191185,0.6175495474338534 1.4608099863529205,0.6175495474338534 h12.465836288928985 
		V33.02884388807797 h8.311732511281967 v12.466973371505738 h12.465722580671311 c0.5626284589767456,0 1.0502094678878784,
		-0.20626677942276003 1.4608099863529205,-0.618004380464554 c0.4112827680110932,-0.4101456854343415 0.6176632556915286,
		-0.8980678191185 0.6176632556915286,-1.4608099863529205 V27.83430955270319 c0,-0.08641827583312993 -0.011825658798217776,
		-0.15168681573867795 -0.03274797821044924,-0.19409999585151677 L28.909073628391322,12.251502504382415 z" id="svg_3"/>
		<path d="M54.717777997697894,24.133901723180088 L47.60851031133086,18.225393237862875 V4.979859426055214 c0,
		-0.30280509018898016 -0.09733426856994633,-0.5518261744976043 -0.29268505525588995,-0.7467221281528473 
		c-0.19375887107849127,-0.19466853713989266 -0.44277995538711556,-0.292002805709839 -0.7462672951221465,-0.292002805709839
		 h-6.233031852722168 c-0.3031462149620057,0 -0.5520535910129546,0.09733426856994633 -0.747063252925873,0.292002805709839 
		 c-0.19455482888221745,0.19489595365524295 -0.29177538919448864,0.44403074622154237 -0.29177538919448864,0.7467221281528473 
		 v6.330479829549789 l-7.921144646167756,-6.6229374682903295 c-0.6918010396957399,-0.5627421672344207 -1.5143665757179257,
		 -0.8440563967227935 -2.4667869420051574,-0.8440563967227935 c-0.9523066580295564,0 -1.7747584857940675,0.2813142294883728
		  -2.467241775035858,0.8440563967227935 L3.099914426054059,24.133901723180088 c-0.21638681435585022,0.17283655166625977
		   -0.33498452711105364,0.40548364686965954 -0.3570439291000366,0.6977138690948488 c-0.021945693731307992,0.292002805709839
		    0.053670297622680684,0.5470504276752471 0.22707539057731635,0.7633235337734223 l2.0127498691082,2.4024280681610106 
			c0.17340509295463563,0.19466853713989266 0.4003667752742769,0.3137210829257966 0.681794713020325,0.35727134561538687 
			c0.2598233687877656,0.021831985473632815 0.5196467375755311,-0.05412513065338136 0.7794701063632966,-0.22718909883499147
			 L28.909073628391322,9.394923655066748 l22.465340468883515,18.73241207766533 c0.1735188012123108,0.15100456619262698
			  0.4003667752742769,0.22639314103126532 0.681794713020325,0.22639314103126532 h0.09756168508529668 c0.2809731047153473,
			  -0.04275430488586427 0.5074799540042877,-0.16260280847549444 0.681794713020325,-0.3568165125846864 l2.0129772856235504,
			  -2.4020869433879852 c0.17306396818161013,-0.21672793912887578 0.24890737605094915,-0.4713207280635833 0.22639314103126532,
			  -0.7636646585464479 C55.05276252480894,24.539726494822787 54.93370997902304,24.307079399619397 54.717777997697894,
			  24.133901723180088 z" id="svg_4"/>
	</g>
</g></g></svg>