<svg width="100" height="100" xmlns="http://www.w3.org/2000/svg" version="1.1" xml:space="preserve">
 <g>
  <title>Layer 1</title>
  <g transform="rotate(-179.459 47.0001 54.5002)" stroke="null" id="Layer_8_copy_4_3_">
   <path fill="#84D3DB" stroke="null" d="m28.17035,35.99252l0,6.75234c0,0.46486 0.26979,0.89554 0.70765,1.12756l17.87871,9.50001c0.94294,0.5015 0.94294,1.75444 0,2.25594l-17.87871,9.50001c-0.43786,0.23284 -0.70765,0.6627 -0.70765,1.12756l0,6.75234c0,1.00219 1.17912,1.62906 2.12206,1.12756l34.82953,-18.50748c0.94294,-0.5015 0.94294,-1.75444 0,-2.25594l-34.82953,-18.50829c-0.94294,-0.50069 -2.12206,0.12538 -2.12206,1.12838z" id="svg_1"/>
   <path fill="#84D3DB" stroke="null" d="m65.12194,53.37244l-34.82953,-18.50829c-0.17072,-0.09118 -0.3494,-0.13352 -0.52808,-0.15468l33.58849,17.84804c0.94294,0.5015 0.94294,1.75444 0,2.25594l-34.82953,18.50829c-0.08846,0.04722 -0.18133,0.0749 -0.27244,0.10258c0.27244,0.74411 1.23927,1.13815 2.04156,0.71154l34.82953,-18.50748c0.94382,-0.5015 0.94382,-1.75525 0,-2.25594z" id="svg_2"/>
   <path stroke="#000000" d="m28.17035,35.99252l0,6.75234c0,0.46486 0.26979,0.89554 0.70765,1.12756l17.87871,9.50001c0.94294,0.5015 0.94294,1.75444 0,2.25594l-17.87871,9.50001c-0.43786,0.23284 -0.70765,0.6627 -0.70765,1.12756l0,6.75234c0,1.00219 1.17912,1.62906 2.12206,1.12756l34.82953,-18.50748c0.94294,-0.5015 0.94294,-1.75444 0,-2.25594l-34.82953,-18.50829c-0.94294,-0.50069 -2.12206,0.12538 -2.12206,1.12838z" fill="#84D3DB" stroke-miterlimit="10" id="svg_3"/>
  </g>
 </g>

</svg>